<svg xmlns="http://www.w3.org/2000/svg" xmlns:xlink="http://www.w3.org/1999/xlink" viewBox="0 0 52.59 74.34"><defs><style>.cls-1{fill:#f60;}.cls-2{fill:url(#Gradiente_sem_nome_28);}.cls-3,.cls-4{stroke:#fff;stroke-miterlimit:10;}.cls-3{stroke-width:2px;}.cls-5{fill:url(#Gradiente_sem_nome_6);}.cls-6{fill:url(#Gradiente_sem_nome_6-2);}.cls-7{fill:url(#Gradiente_sem_nome_6-3);}.cls-8{fill:url(#Gradiente_sem_nome_6-4);}.cls-9{fill:url(#Gradiente_sem_nome_6-5);}.cls-10{fill:url(#Gradiente_sem_nome_6-6);}.cls-11{fill:url(#Gradiente_sem_nome_6-7);}.cls-12{fill:url(#Gradiente_sem_nome_6-8);}.cls-13{fill:url(#Gradiente_sem_nome_6-9);}.cls-14{fill:url(#Gradiente_sem_nome_6-10);}.cls-15{fill:url(#Gradiente_sem_nome_6-11);}.cls-16{fill:url(#Gradiente_sem_nome_6-12);}.cls-17{fill:url(#Gradiente_sem_nome_6-13);}.cls-18{fill:url(#Gradiente_sem_nome_6-14);}.cls-19{fill:url(#Gradiente_sem_nome_6-15);}.cls-20{fill:url(#Gradiente_sem_nome_6-16);}.cls-21{fill:url(#Gradiente_sem_nome_6-17);}.cls-22{fill:url(#Gradiente_sem_nome_6-18);}.cls-23{fill:url(#Gradiente_sem_nome_6-19);}.cls-24{fill:url(#Gradiente_sem_nome_6-20);}.cls-25{fill:url(#Gradiente_sem_nome_6-21);}.cls-26{fill:url(#Gradiente_sem_nome_6-22);}.cls-27{fill:url(#Gradiente_sem_nome_6-23);}.cls-28{fill:url(#Gradiente_sem_nome_6-24);}.cls-29{fill:url(#Gradiente_sem_nome_6-25);}.cls-30{fill:url(#Gradiente_sem_nome_6-26);}.cls-31{fill:url(#Gradiente_sem_nome_6-27);}.cls-32{fill:url(#Gradiente_sem_nome_6-28);}.cls-33{fill:url(#Gradiente_sem_nome_6-29);}.cls-34{fill:url(#Gradiente_sem_nome_6-30);}.cls-35{fill:url(#Gradiente_sem_nome_6-31);}.cls-36{fill:url(#Gradiente_sem_nome_6-32);}.cls-37{fill:url(#Gradiente_sem_nome_6-33);}.cls-38{fill:url(#Gradiente_sem_nome_6-34);}.cls-39{fill:url(#Gradiente_sem_nome_6-35);}.cls-40{fill:url(#Gradiente_sem_nome_6-36);}.cls-41{fill:#f63;}</style><linearGradient id="Gradiente_sem_nome_28" x1="3.51" y1="14.32" x2="40.15" y2="14.32" gradientTransform="matrix(-1, -0.04, -0.04, 1, 53.09, 0.79)" gradientUnits="userSpaceOnUse"><stop offset="0" stop-color="#bf5500"/><stop offset="1" stop-color="#f7931e"/></linearGradient><linearGradient id="Gradiente_sem_nome_6" x1="41.41" y1="57.08" x2="41.41" y2="57.08" gradientTransform="matrix(0.96, -0.49, 0.01, 1.04, 1.52, 18.37)" gradientUnits="userSpaceOnUse"><stop offset="0" stop-color="#f15a24"/><stop offset="1" stop-color="#f7931e"/></linearGradient><linearGradient id="Gradiente_sem_nome_6-2" x1="46.7" y1="54.72" x2="46.7" y2="54.72" xlink:href="#Gradiente_sem_nome_6"/><linearGradient id="Gradiente_sem_nome_6-3" x1="39.06" y1="55.6" x2="48.47" y2="55.6" xlink:href="#Gradiente_sem_nome_6"/><linearGradient id="Gradiente_sem_nome_6-4" x1="36.12" y1="50.3" x2="40.23" y2="50.3" xlink:href="#Gradiente_sem_nome_6"/><linearGradient id="Gradiente_sem_nome_6-5" x1="44.35" y1="50.3" x2="48.47" y2="50.3" xlink:href="#Gradiente_sem_nome_6"/><linearGradient id="Gradiente_sem_nome_6-6" x1="36.12" y1="58.55" x2="40.23" y2="58.55" xlink:href="#Gradiente_sem_nome_6"/><linearGradient id="Gradiente_sem_nome_6-7" x1="40.82" y1="49.71" x2="43.76" y2="49.71" xlink:href="#Gradiente_sem_nome_6"/><linearGradient id="Gradiente_sem_nome_6-8" x1="41.41" y1="50.59" x2="41.41" y2="50.59" xlink:href="#Gradiente_sem_nome_6"/><linearGradient id="Gradiente_sem_nome_6-9" x1="36.12" y1="54.72" x2="40.23" y2="54.72" xlink:href="#Gradiente_sem_nome_6"/><linearGradient id="Gradiente_sem_nome_6-10" x1="40.83" y1="59.73" x2="42.58" y2="59.73" xlink:href="#Gradiente_sem_nome_6"/><linearGradient id="Gradiente_sem_nome_6-11" x1="41.41" y1="58.84" x2="41.41" y2="58.84" xlink:href="#Gradiente_sem_nome_6"/><linearGradient id="Gradiente_sem_nome_6-12" x1="37.88" y1="53.54" x2="37.88" y2="53.54" xlink:href="#Gradiente_sem_nome_6"/><linearGradient id="Gradiente_sem_nome_6-13" x1="36.12" y1="53.54" x2="37.88" y2="53.54" xlink:href="#Gradiente_sem_nome_6"/><linearGradient id="Gradiente_sem_nome_6-14" x1="47.3" y1="53.83" x2="48.47" y2="53.83" xlink:href="#Gradiente_sem_nome_6"/><linearGradient id="Gradiente_sem_nome_6-15" x1="39.06" y1="53.54" x2="39.06" y2="53.54" gradientTransform="matrix(0.95, 0.51, -0.85, 0.6, 47.84, 3.2)" xlink:href="#Gradiente_sem_nome_6"/><linearGradient id="Gradiente_sem_nome_6-16" x1="39.06" y1="53.25" x2="40.23" y2="53.25" xlink:href="#Gradiente_sem_nome_6"/><linearGradient id="Gradiente_sem_nome_6-17" x1="47.29" y1="55.6" x2="47.88" y2="55.6" xlink:href="#Gradiente_sem_nome_6"/><linearGradient id="Gradiente_sem_nome_6-18" x1="47.29" y1="55.89" x2="47.29" y2="55.89" gradientTransform="matrix(0.91, 0.57, -0.89, 0.54, 54.01, -3.59)" xlink:href="#Gradiente_sem_nome_6"/><linearGradient id="Gradiente_sem_nome_6-19" x1="47.88" y1="56.78" x2="48.47" y2="56.78" xlink:href="#Gradiente_sem_nome_6"/><linearGradient id="Gradiente_sem_nome_6-20" x1="43.18" y1="52.07" x2="43.76" y2="52.07" xlink:href="#Gradiente_sem_nome_6"/><linearGradient id="Gradiente_sem_nome_6-21" x1="43.17" y1="52.36" x2="43.18" y2="52.36" gradientTransform="matrix(0.93, 0.54, -0.87, 0.57, 48.74, -1.24)" xlink:href="#Gradiente_sem_nome_6"/><linearGradient id="Gradiente_sem_nome_6-22" x1="41.41" y1="57.66" x2="41.41" y2="57.66" xlink:href="#Gradiente_sem_nome_6"/><linearGradient id="Gradiente_sem_nome_6-23" x1="40.83" y1="57.37" x2="41.41" y2="57.37" xlink:href="#Gradiente_sem_nome_6"/><linearGradient id="Gradiente_sem_nome_6-24" x1="47.29" y1="58.25" x2="47.29" y2="58.25" xlink:href="#Gradiente_sem_nome_6"/><linearGradient id="Gradiente_sem_nome_6-25" x1="47.29" y1="57.96" x2="47.88" y2="57.96" xlink:href="#Gradiente_sem_nome_6"/><linearGradient id="Gradiente_sem_nome_6-26" x1="46.7" y1="54.42" x2="47.29" y2="54.42" xlink:href="#Gradiente_sem_nome_6"/><linearGradient id="Gradiente_sem_nome_6-27" x1="46.7" y1="54.13" x2="46.7" y2="54.13" xlink:href="#Gradiente_sem_nome_6"/><linearGradient id="Gradiente_sem_nome_6-28" x1="43.18" y1="59.73" x2="43.76" y2="59.73" xlink:href="#Gradiente_sem_nome_6"/><linearGradient id="Gradiente_sem_nome_6-29" x1="44.94" y1="60.02" x2="44.94" y2="60.02" xlink:href="#Gradiente_sem_nome_6"/><linearGradient id="Gradiente_sem_nome_6-30" x1="44.35" y1="60.31" x2="44.94" y2="60.31" xlink:href="#Gradiente_sem_nome_6"/><linearGradient id="Gradiente_sem_nome_6-31" x1="47.88" y1="60.31" x2="48.47" y2="60.31" xlink:href="#Gradiente_sem_nome_6"/><linearGradient id="Gradiente_sem_nome_6-32" x1="43.18" y1="55.01" x2="43.76" y2="55.01" xlink:href="#Gradiente_sem_nome_6"/><linearGradient id="Gradiente_sem_nome_6-33" x1="43.76" y1="55.31" x2="43.76" y2="55.31" xlink:href="#Gradiente_sem_nome_6"/><linearGradient id="Gradiente_sem_nome_6-34" x1="37.29" y1="50.3" x2="39.05" y2="50.3" xlink:href="#Gradiente_sem_nome_6"/><linearGradient id="Gradiente_sem_nome_6-35" x1="45.53" y1="50.3" x2="47.29" y2="50.3" xlink:href="#Gradiente_sem_nome_6"/><linearGradient id="Gradiente_sem_nome_6-36" x1="37.29" y1="58.55" x2="39.05" y2="58.55" xlink:href="#Gradiente_sem_nome_6"/></defs><g id="Camada_2" data-name="Camada 2"><g id="Camada_1-2" data-name="Camada 1"><path class="cls-1" d="M39.05,11.72a4.68,4.68,0,0,0-2.54-2.27L14.23,1.27A1,1,0,0,0,13,2.81l11.1,16.71a2.75,2.75,0,0,0,1.32,1.06l20.39,7.84a.83.83,0,0,0,1.07-1.16Z"/><path class="cls-2" d="M38.91,11.68a4.68,4.68,0,0,0-2.55-2.26L14.08,1.23c-.78-.26-1.14.59-1.2.58A1.78,1.78,0,0,1,15.29.1L37.57,8.29a4.75,4.75,0,0,1,2.55,2.26l8.47,16.7c.33,2.08-2.59,1.23-2.59,1.23s1.07-.53,1-.89C46.81,26.91,38.91,11.68,38.91,11.68Z"/><path class="cls-3" d="M16.62,56.2,2.44,65.29V34.22a6.86,6.86,0,0,1,2.85-5.8l11.82-7.58c1.16-.74,2.55.3,2.55,1.93V50A7.33,7.33,0,0,1,16.62,56.2Z"/><path class="cls-4" d="M23.42,55.38,48.85,65V34.23a5.82,5.82,0,0,0-3.39-5.56l-21.95-8.3c-1.91-.72-3.85,1-3.85,3.39V49.23A6.44,6.44,0,0,0,23.42,55.38Z"/><path class="cls-4" d="M48.32,67.38l-11.62,6a4.09,4.09,0,0,1-6-3.63V45.4a6.53,6.53,0,0,1,3.53-5.8L48.93,32A2.16,2.16,0,0,1,52.09,34V61.18A7,7,0,0,1,48.32,67.38Z"/><polygon class="cls-5" points="41.47 57.67 41.47 57.67 41.47 57.68 41.47 57.68 41.47 57.67"/><polygon class="cls-6" points="46.52 52.63 46.52 52.63 46.52 52.63 46.52 52.63 46.52 52.63"/><path class="cls-7" d="M47.1,56.64V56l-.56.29V55.08l.56-.28V53.57l-.57.29V52.63l-.56.29V52.3l.56-.29V51.4l-.57.29v-.62l-2.81,1.44V51.9l-.57.29V51l-.56.29v1.22l-.56.29V50.92l-.57.29,0,4.91L39.21,57v.62l1.68-.87v.62l.56-.29v.61l.56-.28V58l-.55.29v1.23l1.13-.58v-.61l2.8-1.43v.61l-1.12.57v.62l.56-.29V59L46,58.44v.62l.57-.29V57.54l1.68-.86v-.61Zm-2.28-4.38.56-.28v.61l-.55.28Zm-1.1,4.88-.55.28v-.61l.56-.28Zm0-2.46v1.23l-.57.28v-.6l-.56.28v.61l-1.12.58v-.61l.56-.29v-.61l-.56.28V54.6L42.57,54v-.61l1.69-.87v1.23l1.12-.58v.62l-1.61.83ZM44.84,56l-.55.28v-.61l.56-.28ZM46,56l-1.12.57V56L46,55.38Zm0-1.85-.56.29v-.61l.55-.29Z"/><path class="cls-8" d="M40.28,49l-3.93,2,0,4.29,3.93-2Zm-.53,4-2.81,1.43,0-3.07,2.81-1.43Z"/><path class="cls-9" d="M48.16,45l-3.93,2,0,4.3,3.93-2Zm-.54,4-2.81,1.43,0-3.06,2.81-1.44Z"/><path class="cls-10" d="M36.44,64l3.93-2,0-4.29-3.93,2ZM37,60l2.8-1.44,0,3.07L37,63Z"/><path class="cls-11" d="M42,50l.56-.29v.61l.57-.29v.61l.56-.28V49.15l-.56.29v-.62l.56-.28V47.31l-2.81,1.44V50l.56-.28v1.23l.56-.29Zm0-1.23.56-.29v.61l-.55.28Z"/><polygon class="cls-12" points="41.43 50.91 41.43 50.92 41.43 50.92 41.43 50.92 41.43 50.91"/><path class="cls-13" d="M38.08,55.71v1.84L37,58.13v-.61l-.56.29V59l2.24-1.15V56.65l1.68-.86v-.61l-1.12.57v-.61Z"/><path class="cls-14" d="M40.94,61.65l1.68-.86v-.62l-.56.29v-.61l-.56.28v-.61l-.56.29Z"/><polygon class="cls-15" points="41.48 59.52 41.48 59.52 41.48 59.52 41.48 59.52 41.48 59.52"/><polygon class="cls-16" points="38.07 55.71 38.07 55.72 38.08 55.72 38.08 55.71 38.07 55.71"/><path class="cls-17" d="M36.39,56v1.23L37,56.9v-.61l1.12-.58V55.1Z"/><path class="cls-18" d="M48.2,51.77V49.93l-1.12.57v.61l.56-.28v1.22Z"/><circle class="cls-19" cx="39.2" cy="55.14" transform="translate(-28.45 55.8) rotate(-55.15)"/><path class="cls-20" d="M40.32,54l-1.12.58v.61l1.12-.58Z"/><path class="cls-21" d="M47.64,52.67l-.56.29v.61l.55-.29Z"/><circle class="cls-22" cx="47.09" cy="53.57" transform="translate(-23.03 66.61) rotate(-59.22)"/><path class="cls-23" d="M48.21,53.61l-.56.29v.61l.55-.29Z"/><path class="cls-24" d="M43.68,51l-.56.29v.61l.56-.29Z"/><circle class="cls-25" cx="43.13" cy="51.9" transform="matrix(0.54, -0.84, 0.84, 0.54, -23.86, 60.01)"/><polygon class="cls-26" points="41.47 58.29 41.47 58.29 41.48 58.29 41.48 58.29 41.47 58.29"/><path class="cls-27" d="M40.91,58v.62l.55-.29v-.61Z"/><polygon class="cls-28" points="47.1 56.03 47.1 56.03 47.1 56.03 47.1 56.03 47.1 56.03"/><path class="cls-29" d="M47.66,55.13l-.56.29V56l.56-.29Z"/><path class="cls-30" d="M47.07,52.34v-.61l-.56.28v.62Z"/><polygon class="cls-31" points="46.51 52.02 46.51 52.01 46.51 52.01 46.51 52.02 46.51 52.02"/><path class="cls-32" d="M43.18,59.88l.56-.28V59l-.55.28Z"/><polygon class="cls-33" points="44.86 59.02 44.87 59.02 44.87 59.02 44.86 59.02 44.86 59.02"/><path class="cls-34" d="M44.31,59.92l.56-.29V59l-.55.29Z"/><path class="cls-35" d="M47.68,58.19l.56-.28V57.3l-.55.29Z"/><path class="cls-36" d="M43.15,54.36V55l.56-.29v-.61Z"/><polygon class="cls-37" points="43.71 54.68 43.71 54.68 43.71 54.68 43.71 54.68 43.71 54.68"/><path class="cls-38" d="M39.17,50.84l-1.68.86v1.84l1.68-.86Z"/><path class="cls-39" d="M47,46.82l-1.68.86v1.83l1.68-.86Z"/><path class="cls-40" d="M37.55,62.14l1.68-.86V59.45l-1.68.86Z"/><path class="cls-4" d="M4.26,66.9l16.81,6.35a6.37,6.37,0,0,0,8.62-6V45.75a5.82,5.82,0,0,0-3.39-5.56l-22-8.3C2.44,31.17.5,32.88.5,35.28V60.75A6.44,6.44,0,0,0,4.26,66.9Z"/><path class="cls-41" d="M24.89,47.79a1.11,1.11,0,0,0-1.12,1.11,1.14,1.14,0,0,0,.12.49L18,56.32a1.08,1.08,0,0,0-.53-.14,1.14,1.14,0,0,0-.33,0l-3.44-4a.86.86,0,0,0,0-.23,1.12,1.12,0,0,0-2.23,0,1.19,1.19,0,0,0,.12.5L5.67,59.39a1.16,1.16,0,0,0-.37-.07,1.12,1.12,0,1,0,1.12,1.12,1.14,1.14,0,0,0-.1-.45l5.94-6.94a1.13,1.13,0,0,0,.32.05,1.1,1.1,0,0,0,.56-.16l3.3,3.86a1,1,0,0,0-.12.49,1.12,1.12,0,1,0,2.23,0,1.09,1.09,0,0,0,0-.26l6-7.07a1.28,1.28,0,0,0,.33.06,1.12,1.12,0,1,0,0-2.23Z"/></g></g></svg>